<?xml version="1.0" standalone="no"?><!DOCTYPE svg PUBLIC "-//W3C//DTD SVG 1.1//EN" "http://www.w3.org/Graphics/SVG/1.1/DTD/svg11.dtd"><svg t="1593678591725" class="icon" viewBox="0 0 1024 1024" version="1.1" xmlns="http://www.w3.org/2000/svg" p-id="7923" xmlns:xlink="http://www.w3.org/1999/xlink" width="32" height="32"><defs><style type="text/css"></style></defs><path d="M316.394667 149.333333H707.626667a42.666667 42.666667 0 0 1 42.496 38.912l54.421333 616.789334A64 64 0 0 1 740.778667 874.666667H283.221333a64 64 0 0 1-63.744-69.632l54.421334-616.789334A42.666667 42.666667 0 0 1 316.394667 149.333333z" fill="#cdcdcd" p-id="7924" data-spm-anchor-id="a313x.7781069.0.i87" class=""></path><path d="M237.546667 600.170667a42.666667 42.666667 0 0 0 32.810666 23.317333c86.442667 11.008 167.381333 16.512 242.816 16.512 75.306667 0 155.477333-5.482667 240.533334-16.469333a42.666667 42.666667 0 0 0 32.768-23.317334l20.096 228.053334A42.666667 42.666667 0 0 1 764.074667 874.666667H259.925333a42.666667 42.666667 0 0 1-42.496-46.421334z" fill="#bfbfbf" p-id="7925" data-spm-anchor-id="a313x.7781069.0.i88" class=""></path><path d="M250.965333 799.872h522.090667a33.834667 33.834667 0 0 1 33.642667 37.397333A41.813333 41.813333 0 0 1 765.098667 874.666667H259.477333a42.154667 42.154667 0 0 1-41.877333-37.397334 33.621333 33.621333 0 0 1 33.386667-37.397333z" fill="#8a8a8a" p-id="7926" data-spm-anchor-id="a313x.7781069.0.i89" class=""></path><path d="M707.605333 149.333333a42.666667 42.666667 0 0 1 42.496 38.912l16.618667 188.010667C697.173333 407.552 606.421333 426.666667 512 426.666667c-94.421333 0-185.130667-19.093333-254.677333-50.389334l16.576-188.032A42.666667 42.666667 0 0 1 316.394667 149.333333H707.626667z" fill="#bfbfbf" p-id="7927" data-spm-anchor-id="a313x.7781069.0.i95" class="selected"></path><path d="M707.605333 149.333333a42.666667 42.666667 0 0 1 42.496 38.912l14.784 167.488C695.594667 386.56 605.610667 405.333333 512 405.333333c-93.589333 0-183.573333-18.773333-252.864-49.6l14.762667-167.466666A42.666667 42.666667 0 0 1 316.394667 149.333333H707.626667z" fill="#bfbfbf" p-id="7928" data-spm-anchor-id="a313x.7781069.0.i94" class=""></path><path d="M707.605333 149.333333a42.666667 42.666667 0 0 1 42.496 38.912l12.906667 146.24C696.021333 365.098667 605.781333 384 512 384s-184.021333-18.901333-251.008-49.514667l12.906667-146.24A42.666667 42.666667 0 0 1 316.394667 149.333333H707.626667z" fill="#dbdbdb" p-id="7929" data-spm-anchor-id="a313x.7781069.0.i86" class=""></path><path d="M707.605333 149.333333a42.666667 42.666667 0 0 1 42.496 38.912l4.266667 48.469334-5.824 0.896c-83.882667 12.266667-162.325333 18.389333-235.306667 18.389333-74.752 0-155.946667-6.421333-243.584-19.285333l4.245334-48.469334A42.666667 42.666667 0 0 1 316.394667 149.333333H707.626667z" fill="#dbdbdb" p-id="7930" data-spm-anchor-id="a313x.7781069.0.i85" class=""></path><path d="M426.666667 394.666667a85.333333 74.666667 0 1 0 170.666666 0 85.333333 74.666667 0 1 0-170.666666 0Z" fill="#dbdbdb" p-id="7931" data-spm-anchor-id="a313x.7781069.0.i93" class=""></path><path d="M426.666667 373.333333a85.333333 74.666667 0 1 0 170.666666 0 85.333333 74.666667 0 1 0-170.666666 0Z" fill="#cdcdcd" p-id="7932" data-spm-anchor-id="a313x.7781069.0.i91" class=""></path><path d="M469.333333 327.594667l-0.128-7.274667 43.882667 43.221333 43.882667-43.221333-0.128 7.274667-28.672 41.578666h19.114666v7.893334h-24.64l-0.149333 0.106666v9.92h24.789333v7.893334h-24.789333v17.898666h-18.816v-17.92h-24.64v-7.893333h24.64v-9.898667l-0.149333-0.128h-24.490667v-7.893333h18.965333z" fill="#bfbfbf" p-id="7933" data-spm-anchor-id="a313x.7781069.0.i92" class="selected"></path><path d="M469.333333 320h21.205334l22.549333 35.946667L535.637333 320h21.205334l-28.672 41.578667h19.114666v7.893333h-24.64l-0.149333 0.106667v9.92h24.789333v7.893333h-24.789333v17.898667h-18.816v-17.92h-24.64v-7.893334h24.64v-9.898666l-0.149333-0.128h-24.490667v-7.893334h18.965333z" fill="#dbdbdb" p-id="7934" data-spm-anchor-id="a313x.7781069.0.i90" class=""></path></svg>