<?xml version="1.0" standalone="no"?><!DOCTYPE svg PUBLIC "-//W3C//DTD SVG 1.1//EN" "http://www.w3.org/Graphics/SVG/1.1/DTD/svg11.dtd"><svg t="1593678136112" class="icon" viewBox="0 0 1024 1024" version="1.1" xmlns="http://www.w3.org/2000/svg" p-id="3171" width="32" height="32" xmlns:xlink="http://www.w3.org/1999/xlink"><defs><style type="text/css"></style></defs><path d="M512 512m-298.666667 0a298.666667 298.666667 0 1 0 597.333334 0 298.666667 298.666667 0 1 0-597.333334 0Z" fill="#FF7A00" p-id="3172"></path><path d="M512 213.333333l6.762667 0.064C680.597333 216.874667 810.666667 344.448 810.666667 501.333333c0 28.330667-4.245333 55.68-12.16 81.557334l-0.341334 1.152C745.578667 667.818667 637.184 725.333333 512 725.333333c-125.184 0-233.6-57.514667-286.165333-141.290666l-0.362667-1.152A278.528 278.528 0 0 1 213.333333 501.333333C213.333333 342.272 347.050667 213.333333 512 213.333333z" fill="#FF973F" p-id="3173"></path><path d="M512 213.333333c125.717333 0 233.301333 74.901333 277.354667 180.949334L789.333333 394.666667c0 111.936-124.16 202.666667-277.333333 202.666666s-277.333333-90.730667-277.333333-202.666666v-0.384C278.698667 288.234667 386.282667 213.333333 512 213.333333z" fill="#FFA559" p-id="3174"></path><path d="M320 320a192 106.666667 0 1 0 384 0 192 106.666667 0 1 0-384 0Z" fill="#FFB980" p-id="3175"></path><path d="M426.666667 256a85.333333 42.666667 0 1 0 170.666666 0 85.333333 42.666667 0 1 0-170.666666 0Z" fill="#FFCFAA" p-id="3176"></path><path d="M981.333333 533.333333c0 117.824-210.133333 213.333333-469.333333 213.333334S42.666667 651.157333 42.666667 533.333333c0-71.765333 77.973333-135.253333 197.525333-173.930666-7.552 16.128-13.653333 33.173333-18.133333 50.986666C163.456 434.773333 128 466.56 128 501.333333c0 76.586667 171.925333 138.666667 384 138.666667s384-62.08 384-138.666667c0-34.837333-35.584-66.688-94.378667-91.050666a286.656 286.656 0 0 0-18.133333-51.029334C903.189333 397.952 981.333333 461.504 981.333333 533.333333z" fill="#FF7122" p-id="3177"></path><path d="M253.802667 355.157333A279.594667 279.594667 0 0 0 229.333333 407.466667C166.4 432.170667 128 465.130667 128 501.333333c0 38.421333 43.306667 73.216 113.237333 98.346667 16.832 15.893333 40.533333 20.48 69.205334 19.690667 54.677333 12.224 118.464 19.605333 186.837333 20.522666L512 640c-247.424 0-448-66.858667-448-149.333333 0-12.992 4.970667-26.112 14.336-39.04 36.117333-39.573333 97.706667-73.152 175.466667-96.469334z m516.096-0.106666c77.930667 23.338667 139.648 56.96 175.829333 96.64 9.301333 12.885333 14.272 26.005333 14.272 38.976 0 82.474667-200.576 149.333333-448 149.333333 73.450667 0 142.101333-7.466667 200.448-20.373333 29.866667 1.066667 54.506667-3.541333 71.616-20.394667C853.248 574.122667 896 539.52 896 501.333333c0-36.266667-38.570667-69.290667-101.696-93.994666-6.4-18.496-14.613333-35.968-24.405333-52.288z" fill="#FF8F46" p-id="3178"></path><path d="M981.333333 533.333333c0 117.824-210.133333 213.333333-469.333333 213.333334S42.666667 651.157333 42.666667 533.333333c0-1.834667 0.042667-3.648 0.149333-5.482666C49.173333 637.376 256.789333 725.333333 512 725.333333c255.189333 0 462.826667-87.957333 469.184-197.482666 0.106667 1.834667 0.149333 3.648 0.149333 5.482666z" fill="#E9260E" p-id="3179"></path><path d="M895.893333 497.664L896 501.333333c0-36.266667-38.549333-69.269333-101.674667-93.994666a266.730667 266.730667 0 0 0-3.797333-10.325334c63.488 25.002667 103.146667 59.584 105.386667 100.650667zM229.333333 407.466667C166.336 432.234667 128 465.173333 128 501.333333l0.106667-3.669333c2.218667-41.002667 41.749333-75.52 105.024-100.501333-1.344 3.392-2.602667 6.826667-3.84 10.304z" fill="#EC0000" p-id="3180"></path></svg>